<svg xmlns="http://www.w3.org/2000/svg" width="500" height="500" fill="none" viewBox="0 0 500 500"><path fill="#00bca2" d="M500 31.002C500 19.962 491.04 11 479.996 11H200.398c-11.042 0-20.003 8.961-20.003 20.002v262.242c-19.082-15.802-43.546-25.323-70.199-25.323C49.437 267.921 0 317.357 0 378.114c0 60.758 49.427 110.195 110.196 110.195s110.205-49.427 110.205-110.195V51.004h239.594V172.46c-19.073-15.801-43.537-25.312-70.191-25.312-60.758 0-110.205 49.435-110.205 110.193s49.437 110.193 110.205 110.193S500 318.097 500 257.34c0-2.27-.21-4.481-.341-6.721.191-1.1.341-2.22.341-3.38zM110.196 448.303c-38.696 0-70.19-31.484-70.19-70.189s31.484-70.188 70.19-70.188 70.199 31.484 70.199 70.188-31.484 70.189-70.199 70.189m279.619-120.775c-38.706 0-70.2-31.484-70.2-70.188s31.484-70.189 70.2-70.189c38.695 0 70.189 31.484 70.189 70.189s-31.494 70.188-70.189 70.188"/></svg>