<svg xmlns="http://www.w3.org/2000/svg" width="300" height="67" fill="none" viewBox="0 0 300 67"><path fill="#00bca2" d="M66.978 5.539c0-1.48-1.2-2.68-2.68-2.68H26.846a2.68 2.68 0 0 0-2.68 2.68v35.13a14.7 14.7 0 0 0-9.404-3.393C6.622 37.276 0 43.9 0 52.037 0 60.178 6.621 66.8 14.761 66.8s14.763-6.621 14.763-14.762V8.218h32.095v16.27a14.7 14.7 0 0 0-9.402-3.39c-8.14 0-14.763 6.622-14.763 14.76 0 8.14 6.622 14.762 14.763 14.762s14.761-6.622 14.761-14.761c0-.304-.028-.6-.045-.9.025-.148.045-.298.045-.453zm-52.217 55.9c-5.183 0-9.402-4.217-9.402-9.401s4.218-9.403 9.402-9.403c5.185 0 9.404 4.218 9.404 9.403 0 5.184-4.217 9.402-9.404 9.402m37.457-16.178c-5.185 0-9.404-4.217-9.404-9.402s4.218-9.403 9.404-9.403c5.183 0 9.402 4.218 9.402 9.403s-4.218 9.402-9.402 9.402"/><path fill="#fff" d="M289.974 51.201a11.1 11.1 0 0 1-3.122-.465q-1.593-.398-2.988-1.66-1.329-1.262-2.125-3.653-.798-2.457-.797-6.442l.133-19.258-5.114.066v-2.856q1.726-.066 3.52-1.262 1.793-1.261 3.187-3.386a12.8 12.8 0 0 0 1.993-4.65h2.258v9.298h11.157v2.59l-11.157.133-.133 18.462q0 2.988.465 5.114.53 2.058 1.66 3.121t2.922 1.063q1.86 0 3.453-1.063 1.66-1.062 2.922-2.922l1.794 1.461q-1.461 2.192-2.922 3.453-1.395 1.263-2.723 1.86-1.329.664-2.458.797-1.128.2-1.925.2"/><path fill="#fff" d="M260.356 51.202q-3.32 0-5.91-.93-2.59-.864-4.25-1.992l.265 2.324h-2.789l-.399-11.423h2.059q.133 2.723 1.528 4.915a9.9 9.9 0 0 0 3.586 3.32 9.7 9.7 0 0 0 4.715 1.196q1.726 0 3.387-.532 1.66-.597 2.789-1.726 1.13-1.196 1.129-2.989 0-1.86-1.129-3.055-1.062-1.262-2.856-2.191a39 39 0 0 0-3.851-1.727 151 151 0 0 1-3.985-1.66 21.6 21.6 0 0 1-3.719-2.059 9.3 9.3 0 0 1-2.656-2.922q-.997-1.727-.997-4.25 0-1.395.532-3.055.531-1.66 1.793-3.122 1.261-1.527 3.453-2.457 2.192-.996 5.579-.996 1.793 0 3.984.598 2.191.596 4.251 2.258l-.133-2.524h2.789v11.622h-2.125a12.9 12.9 0 0 0-1.063-4.45q-.93-2.19-2.723-3.586-1.793-1.46-4.648-1.46-3.055 0-4.782 1.527t-1.727 3.52q0 2.058 1.262 3.453 1.329 1.328 3.387 2.324a69 69 0 0 0 4.383 1.926 62 62 0 0 1 4.915 2.325q2.391 1.26 3.918 3.187 1.527 1.86 1.527 4.848 0 3.32-1.726 5.512-1.66 2.192-4.317 3.188a14.2 14.2 0 0 1-5.446 1.063"/><path fill="#fff" d="M228.063 48.146q2.058 0 2.855-.997.796-1.062.93-2.855.132-1.86.133-4.25V24.902q0-1.064.066-1.992.066-.997.199-2.325l-2.39.133q-1.13.066-2.325.133v-2.79q2.923 0 4.516-.265 1.594-.265 2.391-.664.863-.399 1.328-.864h1.926v26.83q0 1.329-.066 2.391 0 .996-.2 2.125a33 33 0 0 1 2.059-.066l2.125-.133v2.723h-13.547zm6.441-38.452q-1.394 0-2.457-1.13-1.062-1.128-1.062-2.788t1.062-2.79q1.13-1.195 2.524-1.195 1.527 0 2.523 1.195 1.063 1.13 1.063 2.79t-1.129 2.789q-1.062 1.13-2.524 1.129"/><path fill="#fff" d="M209.309 48.148q2.058 0 2.855-.997.797-1.062.93-2.855.133-1.86.133-4.25V6.64a72 72 0 0 1 .199-2.324l-2.391.133q-1.128.066-2.324.132V1.793q2.922 0 4.516-.266 1.66-.265 2.457-.664.864-.398 1.328-.863h1.926l.067 43.1q0 1.329-.067 2.391a20 20 0 0 1-.265 2.125 33 33 0 0 1 2.058-.066l2.125-.133v2.723h-13.547z"/><path fill="#fff" d="M196.778 51.201q-1.527 0-3.121-.465-1.594-.398-2.989-1.66-1.327-1.262-2.125-3.653-.797-2.457-.797-6.442l.133-19.258-5.113.066v-2.856q1.727-.066 3.519-1.262 1.794-1.261 3.188-3.386a12.8 12.8 0 0 0 1.992-4.65h2.258v9.298h11.157v2.59l-11.157.133-.132 18.462q0 2.988.464 5.114.532 2.058 1.661 3.121 1.128 1.063 2.922 1.063 1.86 0 3.453-1.063 1.66-1.062 2.922-2.922l1.793 1.461q-1.461 2.192-2.922 3.453-1.394 1.263-2.723 1.86-1.328.664-2.457.797-1.128.2-1.926.2"/><path fill="#fff" d="M164.821 51.202q-4.583 0-8.301-2.126-3.653-2.19-5.778-6.11-2.124-3.984-2.125-9.363 0-4.65 2.059-8.7 2.125-4.05 5.91-6.508 3.786-2.524 8.767-2.524 2.789 0 5.18.93a11.35 11.35 0 0 1 4.316 2.723q1.86 1.793 2.922 4.582 1.063 2.722 1.063 6.442l-23.377.398q0 5.047 1.063 8.9 1.13 3.785 3.586 5.91 2.457 2.058 6.309 2.059 2.059 0 4.184-.73a16.4 16.4 0 0 0 4.051-1.993q1.86-1.262 2.989-2.79l1.593 1.329q-1.793 2.789-4.316 4.45-2.524 1.66-5.18 2.39t-4.915.73m-9.164-23.045h16.934q0-2.39-.73-4.582-.665-2.259-2.258-3.653-1.594-1.46-4.184-1.46-3.852 0-6.442 2.323-2.523 2.259-3.32 7.372"/><path fill="#fff" d="M120.473 48.147q2.058 0 2.855-.996.798-1.063.93-2.856a60 60 0 0 0 .133-4.25V22.778a20 20 0 0 1 .266-2.192l-2.391.133q-1.13 0-2.325.066v-2.722H122q2.856 0 3.918-.532 1.13-.598 1.86-1.261h1.926q.132 1.062.199 2.656.066 1.527.133 3.918.996-1.66 2.723-3.254a16.6 16.6 0 0 1 3.851-2.656 10.4 10.4 0 0 1 4.583-1.063q1.859 0 3.254.996t1.395 3.188q0 .531-.333 1.328-.332.73-1.062 1.328-.73.532-1.926.532-1.461-.066-2.324-1.13-.864-1.128-.664-2.59-1.66-.066-3.454.864-1.727.93-3.254 2.59-1.527 1.594-2.723 3.785l.067 16.337q0 1.329-.067 2.391 0 .996-.199 2.125a33 33 0 0 1 2.059-.066l2.125-.133v2.723h-13.614z"/><path fill="#fff" d="M85.469 50.139v-2.192q2.523-.133 3.453-1.129.93-1.062.996-2.855.133-1.86.133-4.184v-28.69q0-1.328.067-2.523.066-1.262.132-2.258l-2.39.133-2.391.132V3.651h30.814l.332 11.622h-2.191q0-3.918-1.262-5.91-1.261-2.059-3.321-2.723-2.058-.731-4.582-.664l-4.848.133q-2.457.066-3.387 1.195-.93 1.062-1.062 2.856a56 56 0 0 0-.133 4.117V25.7l11.555.066-.465-5.778h2.922v14.013h-2.125q0-2.989-.863-4.25-.797-1.261-2.524-1.528-1.726-.265-4.516-.133l-3.984.2v13.946q0 1.793-.067 3.121 0 1.262-.132 2.125a38 38 0 0 1 2.258-.066l2.257-.133a39 39 0 0 1 2.258-.066v2.922z"/></svg>