<svg xmlns="http://www.w3.org/2000/svg" width="381" height="85" fill="none" viewBox="0 0 381 85"><path className="logo-icon" fill="#00bca2" d="M85.027 7.031a3.403 3.403 0 0 0-3.401-3.401H34.078a3.403 3.403 0 0 0-3.401 3.401v44.597a18.66 18.66 0 0 0-11.938-4.307C8.407 47.321 0 55.728 0 66.061s8.405 18.738 18.74 18.738c10.333 0 18.74-8.405 18.74-18.739V10.433h40.744v20.654a18.65 18.65 0 0 0-11.936-4.304c-10.332 0-18.741 8.407-18.741 18.739s8.407 18.739 18.74 18.739c10.335 0 18.74-8.407 18.74-18.74 0-.385-.036-.761-.058-1.142a3.4 3.4 0 0 0 .058-.575zM18.739 77.996c-6.58 0-11.936-5.354-11.936-11.936s5.354-11.936 11.936-11.936 11.938 5.354 11.938 11.936-5.354 11.936-11.938 11.936m47.55-20.538c-6.581 0-11.937-5.354-11.937-11.936s5.354-11.936 11.938-11.936c6.58 0 11.936 5.354 11.936 11.936S72.87 57.458 66.29 57.458"/><path fill="#0a0a0a" d="M368.113 65q-1.94 0-3.962-.59-2.024-.506-3.794-2.107-1.687-1.602-2.698-4.637-1.012-3.12-1.012-8.178l.169-24.449-6.492.084v-3.625q2.193-.084 4.468-1.602 2.277-1.601 4.047-4.3a16.2 16.2 0 0 0 2.529-5.9h2.867v11.802h14.163v3.288l-14.163.169-.169 23.437q0 3.794.59 6.492.675 2.613 2.108 3.962t3.71 1.349q2.36 0 4.383-1.349 2.109-1.35 3.71-3.71l2.276 1.855q-1.854 2.782-3.709 4.384-1.771 1.602-3.457 2.36-1.686.844-3.119 1.013-1.434.252-2.445.252"/><path fill="#0a0a0a" d="M330.515 65q-4.216 0-7.504-1.18-3.288-1.097-5.395-2.53l.337 2.95h-3.541l-.506-14.5h2.614q.168 3.456 1.939 6.239a12.6 12.6 0 0 0 4.552 4.215 12.3 12.3 0 0 0 5.986 1.518 14 14 0 0 0 4.3-.675q2.107-.758 3.541-2.192 1.433-1.517 1.433-3.794 0-2.36-1.433-3.878-1.35-1.602-3.626-2.782a49 49 0 0 0-4.889-2.192 193 193 0 0 1-5.059-2.107 27.4 27.4 0 0 1-4.721-2.614 11.8 11.8 0 0 1-3.372-3.71q-1.265-2.191-1.265-5.395 0-1.77.675-3.878.674-2.107 2.276-3.963 1.602-1.938 4.384-3.119 2.782-1.265 7.082-1.265 2.275 0 5.058.76 2.782.757 5.396 2.866l-.169-3.204h3.541v14.754h-2.698a16.3 16.3 0 0 0-1.349-5.649q-1.18-2.782-3.456-4.553-2.277-1.854-5.902-1.854-3.878 0-6.07 1.939t-2.192 4.468q0 2.614 1.602 4.384 1.686 1.686 4.3 2.95a87 87 0 0 0 5.564 2.446 79 79 0 0 1 6.239 2.95q3.034 1.602 4.974 4.047 1.939 2.36 1.939 6.154 0 4.215-2.192 6.998-2.108 2.782-5.48 4.047A18 18 0 0 1 330.515 65"/><path fill="#0a0a0a" d="M289.522 61.121q2.614 0 3.625-1.264 1.012-1.35 1.181-3.625.168-2.361.168-5.396V31.614q0-1.349.084-2.53.085-1.264.253-2.95l-3.035.169q-1.433.084-2.95.168v-3.54q3.71 0 5.732-.338 2.023-.337 3.036-.843 1.095-.505 1.686-1.096h2.445v34.06a49 49 0 0 1-.085 3.035q0 1.264-.253 2.698 1.35-.084 2.614-.084l2.698-.169v3.457h-17.199zm8.178-48.813q-1.77 0-3.12-1.433-1.348-1.434-1.348-3.541t1.348-3.541q1.434-1.518 3.204-1.518 1.94 0 3.204 1.518 1.349 1.433 1.349 3.54 0 2.109-1.434 3.542-1.349 1.433-3.203 1.433"/><path fill="#0a0a0a" d="M265.712 61.122q2.614 0 3.625-1.264 1.012-1.35 1.18-3.625.17-2.361.169-5.396V8.43q.084-1.264.253-2.95l-3.035.169q-1.433.084-2.951.168v-3.54q3.71 0 5.733-.338 2.108-.338 3.119-.843Q274.901.59 275.491 0h2.445l.085 54.715q0 1.686-.085 3.035a25 25 0 0 1-.337 2.698 42 42 0 0 1 2.614-.084l2.697-.17v3.457h-17.198z"/><path fill="#0a0a0a" d="M249.804 65q-1.938 0-3.962-.59-2.024-.506-3.794-2.107-1.686-1.602-2.698-4.637-1.011-3.12-1.011-8.178l.168-24.449-6.491.084v-3.625q2.191-.084 4.468-1.602 2.275-1.601 4.047-4.3a16.2 16.2 0 0 0 2.529-5.9h2.866v11.802h14.164v3.288l-14.164.169-.168 23.437q0 3.794.59 6.492.674 2.613 2.107 3.962t3.71 1.349q2.36 0 4.384-1.349 2.107-1.35 3.709-3.71l2.277 1.855q-1.855 2.782-3.71 4.384-1.77 1.602-3.456 2.36-1.687.844-3.12 1.013-1.433.252-2.445.252"/><path fill="#0a0a0a" d="M209.235 65q-5.817 0-10.538-2.698-4.638-2.782-7.335-7.757-2.698-5.058-2.698-11.887 0-5.9 2.614-11.044 2.697-5.142 7.503-8.262 4.806-3.204 11.128-3.204 3.541 0 6.576 1.18a14.4 14.4 0 0 1 5.48 3.457q2.36 2.277 3.71 5.817 1.349 3.457 1.349 8.178l-29.676.506q0 6.407 1.349 11.297 1.433 4.806 4.552 7.503 3.12 2.614 8.009 2.614 2.614 0 5.312-.927a20.9 20.9 0 0 0 5.142-2.53q2.361-1.602 3.794-3.54l2.023 1.686q-2.276 3.54-5.48 5.648-3.203 2.108-6.575 3.035t-6.239.928m-11.634-29.255h21.498q0-3.034-.928-5.817-.843-2.866-2.866-4.637-2.023-1.854-5.311-1.855-4.89 0-8.178 2.951-3.204 2.866-4.215 9.358"/><path fill="#0a0a0a" d="M152.936 61.122q2.614 0 3.625-1.265 1.012-1.35 1.181-3.625.168-2.361.168-5.396v-21.92q.085-1.348.337-2.782l-3.035.169q-1.433 0-2.95.084v-3.456h2.613q3.625 0 4.974-.675 1.434-.759 2.361-1.602h2.445q.168 1.35.253 3.372.084 1.94.168 4.975 1.265-2.108 3.457-4.131a21 21 0 0 1 4.89-3.373 13.2 13.2 0 0 1 5.817-1.349q2.361 0 4.131 1.265t1.77 4.047q0 .674-.421 1.686-.422.927-1.349 1.686-.927.675-2.445.674-1.855-.084-2.951-1.433-1.095-1.433-.843-3.288-2.107-.084-4.384 1.096-2.192 1.18-4.131 3.288-1.939 2.024-3.456 4.806l.084 20.74q0 1.685-.084 3.034 0 1.264-.253 2.698 1.349-.084 2.613-.084l2.698-.169v3.457h-17.283z"/><path fill="#0a0a0a" d="M108.5 63.65v-2.782q3.204-.168 4.384-1.433 1.18-1.35 1.265-3.625.168-2.36.168-5.311v-36.42q0-1.687.084-3.205.085-1.601.169-2.866l-3.035.169-3.035.168v-3.71h39.118l.422 14.754h-2.782q0-4.974-1.602-7.503-1.602-2.613-4.215-3.456-2.614-.928-5.818-.844l-6.154.17q-3.12.083-4.3 1.517-1.18 1.348-1.349 3.625a72 72 0 0 0-.168 5.227v14.5l14.669.085-.59-7.335h3.71v17.789h-2.698q0-3.794-1.096-5.396-1.012-1.602-3.204-1.939-2.191-.337-5.733-.168l-5.058.252v17.705q0 2.276-.084 3.962 0 1.602-.169 2.698a49 49 0 0 1 2.866-.084l2.867-.169a49 49 0 0 1 2.866-.084v3.71z"/></svg>